<svg xmlns="http://www.w3.org/2000/svg" width="48" height="48" viewBox="0 0 48 48">
    <g fill="none" fill-rule="nonzero">
        <path fill="#3F4A5A" d="M10 20.5V18H7a3 3 0 0 1-3-3V6a3 3 0 0 1 3-3h13a3 3 0 0 1 3 3v9a3 3 0 0 1-3 3h-3v2.5h2.25a.75.75 0 1 1 0 1.5H7.75a.75.75 0 1 1 0-1.5H10zm5.5-2.5h-4v2.439h4V18zM7 4.8A1.2 1.2 0 0 0 5.8 6v9A1.2 1.2 0 0 0 7 16.2h13a1.2 1.2 0 0 0 1.2-1.2V6A1.2 1.2 0 0 0 20 4.8H7zM30.8 38.5h11.4V25a1.2 1.2 0 0 0-1.2-1.2h-9a1.2 1.2 0 0 0-1.2 1.2v13.5zm0 1.5v2a1.2 1.2 0 0 0 1.2 1.2h9a1.2 1.2 0 0 0 1.2-1.2v-2H30.8zM32 22h9a3 3 0 0 1 3 3v17a3 3 0 0 1-3 3h-9a3 3 0 0 1-3-3V25a3 3 0 0 1 3-3zm3.75 18.8h1.5a.75.75 0 1 1 0 1.5h-1.5a.75.75 0 1 1 0-1.5z"/>
        <path fill="#00ABFF" d="M26.782 11.47c-.78-.107-1.32-.844-1.22-1.64.1-.801.809-1.374 1.592-1.267 5.04.69 9.319 3.675 11.165 7.805.324.726.027 1.592-.676 1.939-.193.095-.4.143-.61.143-.55 0-1.054-.33-1.287-.851-1.436-3.212-4.87-5.568-8.964-6.13zM24 34.565c.8 0 1.45.645 1.45 1.442 0 .798-.65 1.443-1.45 1.443-6.718 0-12.634-3.69-14.378-9.01a1.44 1.44 0 0 1 .931-1.82 1.452 1.452 0 0 1 1.827.926c1.35 4.114 6.123 7.019 11.62 7.019z"/>
    </g>
</svg>