<svg xmlns="http://www.w3.org/2000/svg" width="48" height="48" viewBox="0 0 48 48">
    <g fill="none" fill-rule="evenodd" transform="translate(4 5)">
        <path fill="#3B3A49" fill-rule="nonzero" d="M8.99 5.589a.913.913 0 0 1-.478-1.698c6.591-3.955 15.16-4.124 21.878-.452a.91.91 0 0 1 .36 1.244.925.925 0 0 1-1.252.357c-6.146-3.36-13.997-3.206-20.031.417a.932.932 0 0 1-.478.132zm26.735 9.752a.904.904 0 0 1-.452.122.923.923 0 0 1-.814-.498C31.932 10.195 26.256 7.108 20 7.108S8.068 10.196 5.54 14.965a.912.912 0 0 1-1.265.376.978.978 0 0 1-.36-1.3C6.766 8.66 13.08 5.19 20 5.19c6.919 0 13.233 3.471 16.086 8.853a.978.978 0 0 1-.361 1.3zm-23.677 9.065c0 3.823 1.366 7.005 4.445 10.336a.936.936 0 0 1-.044 1.314.917.917 0 0 1-1.307-.044C11.728 32.32 10.2 28.733 10.2 24.406c0-5.948 4.446-10.44 10.333-10.44 6.169 0 10.334 3.908 10.334 9.708a.927.927 0 0 1-.924.932.927.927 0 0 1-.924-.932c0-4.773-3.317-7.845-8.486-7.845-4.922 0-8.485 3.601-8.485 8.577zm9.019-14.829c8.623 0 15.133 6.377 15.133 14.829 0 2.934-2.435 5.32-5.427 5.32-2.99 0-5.426-2.386-5.426-5.32 0-2.632-1.824-4.189-4.28-4.189-2.456 0-4.28 1.557-4.28 4.189 0 4.189 2.377 7.6 7.095 10.155a.923.923 0 0 1 .37 1.268.96.96 0 0 1-1.285.364c-5.274-2.857-8.074-6.936-8.074-11.787 0-3.557 2.547-6.052 6.174-6.052 3.626 0 6.173 2.495 6.173 6.052 0 1.905 1.584 3.457 3.533 3.457 1.95 0 3.534-1.552 3.534-3.457 0-7.395-5.688-12.966-13.24-12.966-7.806 0-13.24 5.027-13.24 12.234 0 1.618.454 3.213 1.42 5.494a.927.927 0 0 1-.513 1.219.954.954 0 0 1-1.235-.503c-1.063-2.512-1.566-4.305-1.566-6.21 0-8.166 6.374-14.097 15.134-14.097zm9.913 22.674c.526 0 .953.416.953.932a.942.942 0 0 1-.953.931c-6.521 0-12.247-4.866-12.247-10.44 0-.516.428-.931.953-.931.526 0 .953.415.953.931 0 4.556 4.83 8.577 10.341 8.577z"/>
        <rect width="40" height="3" y="13" fill="#00ABFF" rx="1.5"/>
    </g>
</svg>