<svg width="48" height="48" viewBox="0 0 48 48" fill="none" xmlns="http://www.w3.org/2000/svg">
<path fill-rule="evenodd" clip-rule="evenodd" d="M8 8V20H20V8H8ZM21.0859 6H6.91308C6.40917 6 6 6.40917 6 6.91308V21.0869C6 21.5908 6.40917 22 6.91308 22H21.0869C21.5908 22 22 21.5908 22 21.0869V6.91308C22 6.40917 21.5898 6 21.0859 6Z" fill="#3F4A5A"/>
<path fill-rule="evenodd" clip-rule="evenodd" d="M34 20.5C37.5899 20.5 40.5 17.5899 40.5 14C40.5 10.4101 37.5899 7.5 34 7.5C30.4101 7.5 27.5 10.4101 27.5 14C27.5 17.5899 30.4101 20.5 34 20.5ZM34 22.5C38.6944 22.5 42.5 18.6944 42.5 14C42.5 9.30558 38.6944 5.5 34 5.5C29.3056 5.5 25.5 9.30558 25.5 14C25.5 18.6944 29.3056 22.5 34 22.5Z" fill="#3F4A5A"/>
<path fill-rule="evenodd" clip-rule="evenodd" d="M41.1153 29.1503L35.7566 34.5094L41.1153 39.8685C41.2313 39.9844 41.3233 40.122 41.3861 40.2734C41.4488 40.4249 41.4812 40.5872 41.4812 40.7512C41.4812 40.9151 41.449 41.0775 41.3863 41.229C41.3236 41.3805 41.2317 41.5181 41.1158 41.6341C40.9999 41.7501 40.8623 41.8421 40.7108 41.9048C40.5594 41.9676 40.397 42 40.2331 42C40.0691 42 39.9068 41.9678 39.7553 41.9051C39.6038 41.8424 39.4662 41.7504 39.3502 41.6345L33.9906 36.2755L28.631 41.6345C28.3946 41.8569 28.0809 41.9785 27.7563 41.9735C27.4318 41.9685 27.122 41.8374 26.8925 41.6079C26.663 41.3784 26.5319 41.0686 26.5269 40.744C26.522 40.4195 26.6435 40.1058 26.8659 39.8693L32.2246 34.5094L26.8659 29.1503C26.7499 29.0344 26.6579 28.8968 26.5951 28.7454C26.5324 28.5939 26.5 28.4316 26.5 28.2676C26.5 28.1036 26.5322 27.9413 26.5949 27.7898C26.6576 27.6383 26.7495 27.5006 26.8654 27.3847C26.9813 27.2687 27.1189 27.1767 27.2704 27.1139C27.4218 27.0512 27.5842 27.0188 27.7481 27.0188C27.9121 27.0187 28.0744 27.051 28.2259 27.1137C28.3774 27.1764 28.515 27.2683 28.631 27.3842L33.9906 32.7433L39.3502 27.3842C39.4653 27.2643 39.6031 27.1686 39.7556 27.1026C39.9082 27.0366 40.0723 27.0018 40.2385 27.0001C40.4047 26.9984 40.5695 27.0299 40.7234 27.0927C40.8772 27.1555 41.017 27.2484 41.1345 27.366C41.252 27.4835 41.3448 27.6233 41.4076 27.7772C41.4703 27.9311 41.5017 28.096 41.4999 28.2622C41.4981 28.4284 41.4632 28.5925 41.3972 28.745C41.3311 28.8975 41.2353 29.0353 41.1153 29.1503V29.1503Z" fill="#00ABFF"/>
<path fill-rule="evenodd" clip-rule="evenodd" d="M5.41913 41.2548C5.23164 41.5881 5.4725 42 5.85491 42H22.1451C22.5275 42 22.7683 41.5881 22.5809 41.2548L14.4358 26.7747C14.2446 26.4349 13.7554 26.4349 13.5642 26.7747L5.41913 41.2548ZM14 30.0794L8.41969 40H19.5803L14 30.0794Z" fill="#3F4A5A"/>
</svg>
