<svg xmlns="http://www.w3.org/2000/svg" width="17" height="5" viewBox="0 0 17 5">
    <g fill="none" fill-rule="nonzero">
        <path fill="#00559C" d="M6.783.082l-.859 4.836h1.373l.86-4.836zM4.798.083L3.44 3.386l-.145-.499c-.268-.6-1.028-1.464-1.921-2.008l1.242 4.039 1.467-.002L6.268.082l-1.47.001z"/>
        <path fill="#F2A11A" d="M2.718.477C2.64.18 2.41.093 2.126.082H.017L0 .179C1.64.566 2.726 1.5 3.177 2.623L2.718.477z"/>
        <path fill="#00559C" d="M10.94 1.012c.45-.007.775.087 1.028.185l.124.056.186-1.05A3.673 3.673 0 0 0 11.048 0C9.69 0 8.733.657 8.725 1.599c-.008.695.682 1.084 1.203 1.316.535.237.715.389.712.6-.004.325-.426.474-.821.474-.55 0-.842-.073-1.293-.254l-.177-.077-.193 1.084c.321.135.914.252 1.53.258 1.443 0 2.382-.65 2.392-1.655.006-.55-.36-.97-1.154-1.315-.48-.225-.775-.375-.772-.601 0-.202.25-.417.787-.417zM15.878.082h-1.072c-.333 0-.58.086-.726.402l-2.06 4.434h1.457s.237-.596.291-.727l1.776.002c.042.17.17.725.17.725H17L15.878.082zm-1.71 3.119l.552-1.353c-.008.014.113-.28.185-.462l.093.418.321 1.397h-1.152z"/>
    </g>
</svg>
